<!DOCTYPE svg PUBLIC "-//W3C//DTD SVG 20010904//EN" "http://www.w3.org/TR/2001/REC-SVG-20010904/DTD/svg10.dtd">
<svg version="1.0" xmlns="http://www.w3.org/2000/svg" width="284px" height="284px" viewBox="0 0 2840 2840" preserveAspectRatio="xMidYMid meet">
<g id="layer101" fill="#2e1a00" stroke="none">
 </g>
<g id="layer102" fill="#392917" stroke="none">
 <path d="M535 1201 c-7 -13 3 -18 50 -26 46 -8 103 -24 126 -36 9 -4 33 -11 53 -14 20 -4 39 -11 42 -16 16 -27 124 -63 124 -41 0 10 -101 62 -120 62 -9 0 -26 7 -39 16 -13 9 -37 20 -55 25 -174 44 -172 44 -181 30z"/>
 <path d="M2075 1150 c-16 -11 -37 -20 -45 -20 -13 0 -69 -25 -233 -106 -16 -8 -35 -14 -42 -14 -7 0 -15 -5 -17 -12 -5 -15 -123 -47 -200 -55 -60 -6 -95 -27 -64 -39 23 -9 131 12 180 35 58 26 80 34 89 32 5 -1 20 5 35 12 54 28 138 66 171 78 18 7 48 22 66 35 18 12 48 25 66 29 36 8 59 22 59 36 0 15 -34 10 -65 -11z"/>
 <path d="M120 1101 c-16 -16 -32 -41 -36 -57 -4 -16 -14 -37 -22 -47 -42 -48 -12 -242 45 -287 31 -24 50 -16 29 13 -51 71 -55 91 -47 274 1 12 19 43 41 68 22 26 38 51 35 56 -9 14 -14 12 -45 -20z"/>
 <path d="M2675 1121 c-3 -5 13 -30 35 -56 41 -47 45 -63 41 -147 -3 -59 14 -95 36 -76 20 17 13 131 -11 157 -9 10 -16 24 -16 32 0 38 -70 113 -85 90z"/>
 <path d="M375 960 c-3 -6 5 -14 20 -20 28 -11 130 -83 140 -100 3 -6 20 -17 37 -26 l31 -16 -20 33 c-10 19 -30 39 -43 46 -13 6 -27 19 -32 28 -5 9 -34 27 -65 40 -64 29 -60 28 -68 15z"/>
 <path d="M1150 961 c0 -13 80 -43 125 -46 22 -2 48 -6 58 -10 21 -9 50 1 42 15 -3 5 -16 10 -28 10 -12 0 -55 9 -95 20 -79 22 -102 25 -102 11z"/>
 <path d="M2465 963 c-60 -4 -115 -31 -115 -55 0 -24 5 -23 62 12 26 17 57 30 69 30 32 0 75 -26 108 -67 25 -30 31 -34 37 -20 6 16 -21 62 -48 84 -18 14 -55 19 -113 16z"/>
 <path d="M213 824 c-7 -20 54 -84 80 -84 19 0 76 35 89 54 8 11 -8 46 -21 46 -5 0 -18 -16 -30 -35 -13 -22 -28 -35 -41 -35 -13 0 -28 13 -41 35 -24 39 -27 41 -36 19z"/>
 <path d="M2460 821 c-5 -11 -10 -24 -10 -29 0 -12 79 -52 102 -52 20 0 78 56 78 75 0 26 -17 24 -39 -5 -29 -40 -65 -40 -86 0 -18 35 -30 38 -45 11z"/>
 <path d="M2742 784 c-11 -22 -34 -52 -51 -69 -28 -26 -39 -29 -99 -31 -62 -1 -69 1 -99 29 -29 27 -33 29 -39 12 -8 -21 27 -55 57 -55 10 0 21 -5 24 -11 4 -5 19 -15 33 -20 20 -8 31 -6 51 9 14 10 39 22 55 26 55 14 124 112 97 139 -6 6 -16 -4 -29 -29z"/>
 <path d="M346 711 c-27 -28 -31 -29 -107 -26 -43 2 -79 -1 -79 -6 0 -5 9 -9 19 -9 11 0 23 -5 26 -11 4 -5 19 -15 33 -20 21 -8 31 -6 53 11 16 11 35 20 43 20 18 0 56 38 56 57 0 20 -14 15 -44 -16z"/>
 <path d="M1330 683 c-46 -42 -135 -93 -162 -93 -9 0 -19 -4 -23 -9 -12 -20 15 -20 76 -1 61 20 140 74 159 110 19 35 -8 31 -50 -7z"/>
 <path d="M790 641 c0 -15 84 -60 131 -70 45 -10 81 2 43 15 -39 12 -100 37 -126 50 -30 16 -48 18 -48 5z"/>
 <path d="M1978 629 c-74 -40 -130 -55 -173 -46 -26 6 -50 5 -70 -3 -29 -11 -30 -12 -10 -26 44 -33 307 35 323 84 6 18 -27 14 -70 -9z"/>
 </g>
<g id="layer103" fill="#bab4b1" stroke="none">
 <path d="M1380 2287 c-50 -25 -50 -17 -50 -712 0 -493 3 -654 12 -663 14 -14 121 -16 146 -3 16 8 17 58 12 671 l-5 662 -33 29 c-36 32 -46 34 -82 16z"/>
 </g>
<g id="layer104" fill="#413325" stroke="none">
 <path d="M320 1213 c-19 -6 -43 -12 -52 -12 -21 -1 -114 -55 -146 -84 -13 -12 -35 -44 -49 -71 -23 -46 -25 -58 -21 -160 3 -99 6 -115 30 -152 41 -64 82 -84 167 -84 113 0 151 28 151 113 0 63 -18 75 -65 42 -21 -14 -41 -25 -46 -25 -15 0 -49 43 -49 62 0 43 61 98 109 98 44 0 112 -43 218 -138 146 -131 205 -175 289 -214 64 -30 78 -32 197 -36 l129 -4 73 36 c52 26 88 52 119 89 l46 52 44 -51 c25 -29 72 -65 108 -85 63 -34 63 -34 198 -34 117 0 142 3 192 23 74 30 157 86 238 161 164 151 233 201 280 201 57 0 120 -54 120 -103 0 -15 -36 -57 -49 -57 -5 0 -25 11 -46 25 -47 33 -65 21 -65 -42 0 -85 38 -113 151 -113 63 0 78 4 112 27 21 15 49 45 63 68 21 37 24 53 24 149 0 93 -3 113 -24 154 -28 55 -53 79 -121 119 -125 73 -355 73 -550 0 -22 -8 -121 -52 -220 -97 -256 -117 -328 -138 -470 -134 -104 3 -193 22 -250 53 -22 11 -44 21 -49 21 -5 0 -74 30 -155 66 -200 92 -255 113 -336 130 -89 19 -249 23 -295 7z"/>
 </g>

</svg>